<svg xmlns="http://www.w3.org/2000/svg" width="120" height="15.635" viewBox="0 0 120 15.635"><defs><style>.a{fill:#fff;}</style></defs><path class="a" d="M138.363,6.2v9.433h3.015V9.347H152.4v6.289h3.015V6.2H138.363m2.671-3.058h11.63A4.247,4.247,0,0,0,155.807,0H137.889a4.383,4.383,0,0,0,3.144,3.144M129.189,15.635a4.458,4.458,0,0,0,2.671-3.058H118.291V.043h-3.058V15.635h13.955M92.62,3.1h10.768A4.763,4.763,0,0,0,106.7.043H89.648V9.261H103.6v3.23H92.663a6.167,6.167,0,0,0-3.92,3.144h17.875V6.2H92.663L92.62,3.1m-26.533.043h11.63A4.181,4.181,0,0,0,80.861,0H62.9a4.37,4.37,0,0,0,3.187,3.144m0,6.159h11.63a4.181,4.181,0,0,0,3.144-3.144H62.9A4.37,4.37,0,0,0,66.087,9.3m0,6.332h11.63a4.181,4.181,0,0,0,3.144-3.144H62.9a4.3,4.3,0,0,0,3.187,3.144" transform="translate(-35.807)"/><path class="a" d="M0,.043a4.33,4.33,0,0,0,3.144,3.1h4.91l.258.086V15.592h3.058V3.23l.258-.086h4.91a4.4,4.4,0,0,0,3.144-3.1V0L0,.043"/></svg>